<svg width="18" height="14" fill="none" viewBox="0 0 18 14"><path fill="currentColor" d="M11.968 7.13c0 1.545-1.256 2.8-2.801 2.8a2.803 2.803 0 0 1-2.801-2.8c0-.356.073-.693.194-1.007.198.157.436.265.708.265.639 0 1.157-.518 1.157-1.157 0-.272-.108-.51-.265-.708.314-.121.651-.194 1.007-.194 1.545 0 2.8 1.256 2.8 2.8m5.95 1.504c-1.25 2.092-4.057 5.625-8.751 5.625-4.695 0-7.502-3.533-8.751-5.625a2.93 2.93 0 0 1 0-3.009C1.666 3.533 4.472 0 9.166 0c4.695 0 7.502 3.533 8.752 5.625a2.93 2.93 0 0 1 0 3.009M13.495 7.13A4.334 4.334 0 0 0 9.167 2.8a4.334 4.334 0 0 0-4.329 4.33 4.334 4.334 0 0 0 4.329 4.328 4.334 4.334 0 0 0 4.328-4.328"/></svg>